Coordinates
version=1
nRows=16
nColumns=34
inDegrees=no

Units are S.I. units (second, meters, Newtons, ...)
If the header above contains a line with 'inDegrees', this indicates whether rotational values are in degrees (yes) or radians (no).

endheader
time	pelvis_tilt	pelvis_list	pelvis_rotation	pelvis_tx	pelvis_ty	pelvis_tz	hip_flexion_r	hip_adduction_r	hip_rotation_r	knee_angle_r	ankle_angle_r	subtalar_angle_r	mtp_angle_r	hip_flexion_l	hip_adduction_l	hip_rotation_l	knee_angle_l	ankle_angle_l	subtalar_angle_l	mtp_angle_l	lumbar_extension	lumbar_bending	lumbar_rotation	arm_flex_r	arm_add_r	arm_rot_r	elbow_flex_r	pro_sup_r	arm_flex_l	arm_add_l	arm_rot_l	elbow_flex_l	pro_sup_l
4	-0.783188	-0.0742655	-0.0910987	-0.433787	0.783569	-0.577055	1.87075	-0.204999	-0.0993893	1.44035	0.323659	0.0485417	-0.0172651	1.95907	-0.386896	0.134425	1.48765	0.364164	0.0889139	-0.0197976	-0.576098	0.0291027	0.199653	2.0375	-0.20103	0.383225	1.5044	1.67071	2.01795	-0.101449	0.433289	1.47119	1.73621
4.01	-0.78372	-0.0743457	-0.0899081	-0.43356	0.785763	-0.57755	1.86669	-0.204618	-0.0986244	1.43361	0.321499	0.0462998	-0.0172641	1.95448	-0.385541	0.13163	1.48113	0.361819	0.0875392	-0.0197989	-0.574298	0.0309424	0.200158	2.03573	-0.201124	0.382186	1.50434	1.66847	2.01809	-0.100515	0.435366	1.46996	1.73609
4.02	-0.784273	-0.0745097	-0.0887482	-0.433304	0.788584	-0.578046	1.86136	-0.203634	-0.0978704	1.42499	0.318713	0.0432227	-0.0172631	1.9486	-0.384163	0.128444	1.47283	0.358924	0.0859133	-0.0198002	-0.572102	0.0328524	0.200455	2.03269	-0.201186	0.380436	1.50451	1.66678	2.01692	-0.0998476	0.437569	1.46951	1.73694
4.03	-0.784803	-0.0747416	-0.0876749	-0.43301	0.792029	-0.578536	1.85469	-0.202022	-0.0971505	1.41448	0.315296	0.0393514	-0.0172621	1.9414	-0.382858	0.124855	1.46276	0.355491	0.0840952	-0.0198015	-0.569522	0.0347893	0.200555	2.02822	-0.201206	0.378052	1.50497	1.66559	2.01431	-0.0994896	0.439894	1.46988	1.73888
4.04	-0.785278	-0.0750047	-0.0867134	-0.432669	0.796088	-0.57902	1.84668	-0.199801	-0.0964562	1.40207	0.311262	0.0347595	-0.0172611	1.93284	-0.381676	0.120823	1.4509	0.351536	0.0821323	-0.0198028	-0.566551	0.0367175	0.200441	2.0222	-0.201199	0.375175	1.50576	1.66485	2.0101	-0.0994841	0.442336	1.47107	1.7419
4.05	-0.785679	-0.0752498	-0.0858654	-0.432271	0.800749	-0.579499	1.83732	-0.197017	-0.0957553	1.38776	0.306633	0.029548	-0.0172601	1.92287	-0.380632	0.116293	1.43726	0.347075	0.0800609	-0.0198041	-0.563169	0.0386063	0.200085	2.01457	-0.201208	0.372003	1.50695	1.66455	2.00422	-0.0998621	0.444888	1.47307	1.74587
4.06	-0.785995	-0.0754274	-0.0851217	-0.43181	0.805995	-0.579976	1.82663	-0.193736	-0.0950079	1.37157	0.301432	0.0238304	-0.0172591	1.91148	-0.379718	0.111216	1.42185	0.342117	0.0779056	-0.0198054	-0.559353	0.040427	0.199462	2.00529	-0.201317	0.368774	1.5086	1.66467	1.99658	-0.100625	0.447539	1.47582	1.75047
4.07	-0.786214	-0.0755011	-0.0844734	-0.431275	0.811804	-0.580453	1.81465	-0.190018	-0.0941841	1.35351	0.295666	0.0177162	-0.0172581	1.89866	-0.378912	0.10557	1.40465	0.336663	0.0756791	-0.0198066	-0.555085	0.0421542	0.198574	1.99439	-0.201646	0.365739	1.51079	1.6652	1.98715	-0.101735	0.450255	1.47928	1.75533
4.08	-0.786314	-0.0754538	-0.0839116	-0.430657	0.818154	-0.580929	1.80138	-0.185929	-0.0932756	1.33361	0.289327	0.011306	-0.0172571	1.88441	-0.378183	0.0993646	1.3857	0.330705	0.0733809	-0.0198079	-0.550357	0.0437704	0.197445	1.98188	-0.202336	0.363131	1.5136	1.66614	1.97593	-0.10312	0.452989	1.48333	1.76004
4.09	-0.786252	-0.0752863	-0.0834169	-0.429944	0.825016	-0.581404	1.78682	-0.181549	-0.0923013	1.31191	0.282395	0.00470012	-0.0172561	1.86871	-0.377486	0.0926364	1.36502	0.324235	0.0709995	-0.0198092	-0.545188	0.0452738	0.196102	1.96781	-0.203517	0.361134	1.5171	1.66745	1.96289	-0.104698	0.455682	1.4879	1.7643
4.1	-0.78596	-0.0750091	-0.0829498	-0.42912	0.832361	-0.581881	1.77096	-0.176994	-0.0913078	1.28847	0.274845	-0.00198565	-0.0172551	1.85156	-0.376756	0.0854263	1.34266	0.317253	0.0685159	-0.0198105	-0.539616	0.0466814	0.194551	1.95218	-0.205273	0.359845	1.52134	1.66907	1.94805	-0.106401	0.458281	1.49287	1.768
4.11	-0.785352	-0.0746341	-0.0824471	-0.428169	0.840155	-0.582363	1.75376	-0.172428	-0.0903697	1.26338	0.266662	-0.00860432	-0.0172541	1.83292	-0.37591	0.0777641	1.31868	0.309775	0.0659102	-0.0198117	-0.533691	0.0480262	0.192766	1.93495	-0.207617	0.359254	1.52631	1.67093	1.93142	-0.108196	0.460763	1.49818	1.77111
4.12	-0.784344	-0.0741694	-0.081828	-0.427072	0.848358	-0.582856	1.7352	-0.168052	-0.0895889	1.23677	0.257843	-0.01497	-0.0172531	1.81277	-0.374857	0.0696602	1.29319	0.30182	0.0631749	-0.019813	-0.527448	0.04935	0.190682	1.91607	-0.210494	0.35925	1.532	1.67296	1.91299	-0.110085	0.463136	1.50375	1.77369
4.13	-0.782871	-0.0736172	-0.0810064	-0.425812	0.856922	-0.583367	1.7153	-0.164088	-0.0890915	1.20877	0.248414	-0.0208581	-0.0172521	1.79112	-0.373515	0.0611068	1.26628	0.293409	0.0603354	-0.0198142	-0.520885	0.0506955	0.188219	1.8954	-0.213794	0.359646	1.53832	1.67528	1.89276	-0.112094	0.465419	1.50951	1.7759
4.14	-0.78089	-0.0729726	-0.0799068	-0.424371	0.865797	-0.583901	1.69411	-0.160747	-0.0890181	1.17957	0.238441	-0.0260134	-0.017251	1.76801	-0.371829	0.0520789	1.2381	0.284559	0.0574758	-0.0198155	-0.513957	0.052093	0.185306	1.87282	-0.217379	0.360224	1.54518	1.67799	1.87072	-0.114247	0.467636	1.5154	1.77788
4.15	-0.778364	-0.0722199	-0.0784822	-0.422732	0.874925	-0.58446	1.67169	-0.158195	-0.0895053	1.14935	0.228041	-0.0301612	-0.01725	1.74351	-0.369794	0.0425299	1.20879	0.275287	0.0547548	-0.0198167	-0.506606	0.0535438	0.181896	1.84816	-0.221109	0.360766	1.55244	1.68114	1.84686	-0.116553	0.469811	1.52134	1.77973
